<svg width="138" height="138" viewBox="0 0 138 138" fill="none" xmlns="http://www.w3.org/2000/svg">
<path d="M67.5369 137.786C67.4089 137.786 67.2799 137.779 67.1509 137.766L56.6189 136.682C55.6419 136.584 54.7619 136.11 54.1409 135.348C53.5189 134.585 53.2329 133.626 53.3349 132.647L53.9499 126.685C54.0709 125.517 53.3289 124.416 52.1859 124.067C49.7939 123.339 47.4199 122.438 45.1309 121.388C44.0569 120.895 42.7729 121.246 42.0759 122.224L38.5019 127.248C37.3219 128.899 35.0199 129.285 33.3689 128.109L24.7459 121.971C23.0919 120.793 22.7029 118.49 23.8799 116.838L27.5469 111.686C28.2339 110.722 28.1539 109.404 27.3579 108.553C26.2599 107.375 25.2189 106.161 24.2629 104.945C23.5249 104.011 22.2129 103.742 21.1439 104.306L15.6369 107.217C14.7689 107.678 13.7729 107.773 12.8319 107.483C11.8939 107.194 11.1239 106.556 10.6659 105.687L5.71485 96.3268C4.76785 94.5318 5.45591 92.3018 7.24891 91.3558L12.9999 88.3088C14.0419 87.7588 14.5619 86.5498 14.2389 85.4338C13.2029 81.8118 12.5269 78.0717 12.2299 74.3147C12.1349 73.1207 11.1969 72.1647 9.99787 72.0417L3.30286 71.3528C1.28886 71.1498 -0.185135 69.3397 0.0188646 67.3187L1.10285 56.7847C1.31085 54.7647 3.12589 53.2857 5.14289 53.5007L12.1109 54.2187C13.2839 54.3377 14.3908 53.6198 14.7408 52.5118C15.4028 50.4378 16.1879 48.3887 17.0749 46.4217C17.5639 45.3327 17.2049 44.0467 16.2209 43.3637L10.1939 39.1487C8.53485 37.9837 8.12889 35.6847 9.28589 34.0227L15.3559 25.3457C15.9179 24.5407 16.7609 24.0037 17.7289 23.8327C18.6999 23.6607 19.6738 23.8768 20.4778 24.4388L26.6689 28.7697C27.6379 29.4487 28.9539 29.3587 29.7979 28.5567C31.4959 26.9517 33.3319 25.4197 35.2549 24.0027C36.2099 23.3027 36.5309 22.0137 36.0189 20.9357L32.8059 14.1477C32.3848 13.2597 32.3339 12.2608 32.6649 11.3348C32.9949 10.4108 33.6659 9.66874 34.5549 9.24674L44.1209 4.71476C45.0099 4.29276 46.0109 4.24274 46.9369 4.57474C47.8629 4.90574 48.6039 5.57773 49.0219 6.46573L52.2739 13.3247C52.7799 14.3967 53.9749 14.9697 55.1209 14.6857C57.9019 13.9957 60.7549 13.5127 63.6019 13.2507C64.7779 13.1437 65.7209 12.2047 65.8439 11.0167L66.6349 3.30271C66.8429 1.28771 68.6549 -0.184288 70.6729 0.0187118L81.2069 1.10276C83.2239 1.31176 84.6949 3.12373 84.4869 5.14274L83.6959 12.8567C83.5729 14.0417 84.3029 15.1507 85.4309 15.4947C87.6299 16.1657 89.7989 16.9757 91.8809 17.9037C92.9509 18.3767 94.2248 18.0227 94.9108 17.0597L99.2858 10.9117C100.462 9.26072 102.763 8.87375 104.418 10.0458L113.043 16.1888C114.693 17.3648 115.081 19.6667 113.909 21.3207L109.591 27.3857C108.903 28.3507 109.008 29.6807 109.839 30.5477C110.728 31.4807 111.598 32.4537 112.425 33.4437C113.202 34.3777 114.483 34.6397 115.541 34.0827L122.186 30.5667C123.979 29.6227 126.212 30.3097 127.162 32.1007L132.109 41.4567C132.57 42.3287 132.665 43.3277 132.374 44.2677C132.085 45.2057 131.447 45.9747 130.579 46.4327L124.202 49.8017C123.136 50.3677 122.624 51.6087 122.985 52.7517C124.122 56.3707 124.895 60.1137 125.285 63.8797C125.406 65.0367 126.343 65.9667 127.514 66.0887L134.48 66.8017C136.5 67.0107 137.974 68.8227 137.765 70.8417L136.686 81.3738C136.477 83.3908 134.669 84.8667 132.646 84.6527L125.958 83.9687C124.755 83.8397 123.641 84.5827 123.306 85.7308C122.655 87.9618 121.862 90.1688 120.948 92.2878C120.487 93.3578 120.855 94.6267 121.823 95.3027L127.038 98.9507C128.699 100.112 129.106 102.412 127.946 104.077L121.876 112.75C121.314 113.557 120.47 114.096 119.501 114.267C118.531 114.438 117.557 114.221 116.754 113.656L111.682 110.112C110.699 109.423 109.372 109.526 108.524 110.353C106.731 112.107 104.794 113.763 102.766 115.277C101.82 115.985 101.505 117.284 102.019 118.366L104.68 123.977C105.547 125.816 104.761 128.014 102.929 128.878L93.3588 133.409C92.4708 133.831 91.4718 133.881 90.5468 133.55C89.6218 133.219 88.8809 132.548 88.4589 131.66L85.8409 126.127C85.3269 125.047 84.1219 124.475 82.9749 124.771C80.0759 125.519 77.0679 126.04 74.0349 126.32C72.8609 126.426 71.9199 127.365 71.7979 128.553L71.1879 134.481C71.0899 135.458 70.6158 136.338 69.8538 136.959C69.1898 137.499 68.3789 137.786 67.5369 137.786ZM44.1149 119.987C44.6229 119.987 45.1359 120.094 45.6209 120.317C47.8619 121.345 50.1859 122.228 52.5289 122.94C54.2089 123.453 55.2989 125.08 55.1209 126.806L54.5059 132.768C54.4369 133.434 54.6319 134.086 55.0539 134.604C55.4749 135.122 56.0729 135.443 56.7379 135.51L67.2719 136.594C67.9389 136.662 68.5899 136.468 69.1079 136.046C69.6249 135.624 69.9469 135.026 70.0139 134.362L70.6238 128.433C70.8048 126.686 72.1928 125.304 73.9258 125.148C76.8949 124.874 79.8409 124.364 82.6799 123.631C84.3719 123.196 86.1469 124.034 86.9039 125.622L89.5219 131.155C89.8089 131.759 90.3138 132.216 90.9418 132.441C91.5718 132.667 92.2499 132.632 92.8529 132.345L102.424 127.813C103.67 127.225 104.203 125.731 103.613 124.48L100.952 118.871C100.2 117.285 100.666 115.376 102.059 114.333C104.045 112.851 105.942 111.228 107.698 109.511C108.951 108.287 110.909 108.136 112.354 109.147L117.427 112.692C117.974 113.077 118.635 113.225 119.293 113.108C119.952 112.992 120.525 112.625 120.908 112.076L126.978 103.403C127.767 102.271 127.491 100.707 126.361 99.9167L121.146 96.2698C119.721 95.2757 119.182 93.4057 119.864 91.8237C120.759 89.7487 121.536 87.5877 122.173 85.4027C122.669 83.7067 124.314 82.6107 126.077 82.7987L132.764 83.4827C134.142 83.6247 135.37 82.6247 135.512 81.2537L136.592 70.7217C136.734 69.3487 135.732 68.1157 134.358 67.9737L127.391 67.2607C125.668 67.0807 124.29 65.7097 124.111 64.0017C123.73 60.3147 122.972 56.6487 121.859 53.1067C121.327 51.4237 122.08 49.5967 123.649 48.7627L130.028 45.3927C130.618 45.0817 131.051 44.5587 131.248 43.9217C131.446 43.2817 131.381 42.6027 131.067 42.0087L126.121 32.6537C125.474 31.4357 123.957 30.9657 122.736 31.6097L116.092 35.1257C114.561 35.9337 112.639 35.5437 111.521 34.1997C110.711 33.2307 109.859 32.2767 108.989 31.3637C107.768 30.0897 107.618 28.1297 108.633 26.7047L112.95 20.6407C113.747 19.5167 113.483 17.9497 112.361 17.1507L103.738 11.0077C102.614 10.2107 101.047 10.4747 100.248 11.5967L95.8729 17.7437C94.8649 19.1607 92.9849 19.6817 91.4049 18.9817C89.3669 18.0737 87.2429 17.2798 85.0899 16.6238C83.4249 16.1148 82.3469 14.4807 82.5279 12.7377L83.3189 5.02372C83.4609 3.65072 82.4609 2.41771 81.0899 2.27671L70.5579 1.19272C69.1799 1.05172 67.9519 2.05573 67.8109 3.42673L67.0199 11.1407C66.8389 12.8877 65.4489 14.2687 63.7139 14.4267C60.9269 14.6827 58.1329 15.1557 55.4089 15.8327C53.7209 16.2487 51.9579 15.4087 51.2139 13.8327L47.9619 6.97275C47.6769 6.36875 47.1749 5.91272 46.5449 5.68772C45.9149 5.46172 45.2349 5.49675 44.6299 5.78275L35.0638 10.3147C34.4598 10.6017 34.0029 11.1057 33.7789 11.7347C33.5539 12.3637 33.5879 13.0427 33.8749 13.6457L37.0879 20.4338C37.8409 22.0217 37.3649 23.9237 35.9559 24.9547C34.0719 26.3417 32.2739 27.8427 30.6119 29.4137C29.3629 30.5987 27.4229 30.7367 25.9969 29.7367L19.8059 25.4057C19.2589 25.0237 18.5939 24.8777 17.9379 24.9947C17.2789 25.1107 16.7059 25.4757 16.3239 26.0227L10.2549 34.6997C9.46789 35.8297 9.74487 37.3937 10.8729 38.1867L16.8969 42.4007C18.3449 43.4057 18.8729 45.3027 18.1519 46.9087C17.2829 48.8357 16.5138 50.8407 15.8658 52.8717C15.3478 54.5067 13.7199 55.5717 11.9939 55.3927L5.02485 54.6747C3.64785 54.5287 2.4199 55.5347 2.2779 56.9077L1.19385 67.4397C1.05585 68.8137 2.05685 70.0447 3.42585 70.1827L10.1219 70.8717C11.8859 71.0527 13.2679 72.4627 13.4079 74.2237C13.6989 77.9027 14.3599 81.5647 15.3739 85.1097C15.8519 86.7577 15.0879 88.5417 13.5549 89.3517L7.80286 92.3987C7.21186 92.7107 6.77788 93.2337 6.58088 93.8717C6.38388 94.5097 6.44785 95.1867 6.75885 95.7777L11.7099 105.138C12.0209 105.729 12.5439 106.162 13.1819 106.359C13.8189 106.555 14.4969 106.491 15.0879 106.178L20.5969 103.267C22.1679 102.437 24.0999 102.838 25.1919 104.218C26.1289 105.41 27.1479 106.598 28.2219 107.751C29.3989 109.009 29.5199 110.952 28.5099 112.371L24.8429 117.522C24.0429 118.645 24.3079 120.211 25.4329 121.012L34.0559 127.15C35.1789 127.949 36.7439 127.686 37.5469 126.565L41.1199 121.541C41.8259 120.541 42.9589 119.987 44.1149 119.987ZM68.9869 107.131C67.6639 107.131 66.3349 107.063 65.0019 106.926C54.8419 105.88 45.6978 100.942 39.2538 93.0207C32.8098 85.0997 29.8369 75.1428 30.8829 64.9858C31.9259 54.8258 36.8639 45.6817 44.7859 39.2367C52.7079 32.7927 62.6658 29.8198 72.8228 30.8658C82.9808 31.9088 92.1249 36.8467 98.5699 44.7687C105.015 52.6907 107.989 62.6477 106.943 72.8057C105.897 82.9647 100.959 92.1077 93.0379 98.5527C86.1559 104.151 77.7379 107.131 68.9869 107.131ZM68.8389 31.8367C60.3569 31.8367 52.1989 34.7237 45.5289 40.1487C37.8509 46.3947 33.0649 55.2577 32.0539 65.1047C31.0409 74.9497 33.9209 84.5997 40.1669 92.2767C46.4129 99.9537 55.2759 104.741 65.1219 105.754C74.9669 106.766 84.6159 103.885 92.2939 97.6387C99.9709 91.3927 104.758 82.5307 105.771 72.6847C106.784 62.8397 103.902 53.1897 97.6558 45.5107C91.4088 37.8327 82.5469 33.0467 72.7019 32.0357C71.4099 31.9037 70.1209 31.8367 68.8389 31.8367Z" fill="#31313B"/>
</svg>
