<svg width="45" height="134" viewBox="0 0 45 134" fill="none" xmlns="http://www.w3.org/2000/svg">
<path d="M8.03906 25.5645V126.179L12.5849 132.665H22.1106H31.6362L36.1796 126.179V25.5645H8.03906Z" fill="white"/>
<path d="M31.6354 133.657H12.5836C12.3995 133.657 12.2231 133.552 12.0931 133.366L7.54725 126.88C7.41724 126.694 7.34375 126.443 7.34375 126.18V25.5654C7.34375 25.0173 7.65423 24.5742 8.03779 24.5742H36.1784C36.5615 24.5742 36.8728 25.0173 36.8728 25.5654V126.18C36.8728 126.443 36.7993 126.694 36.6689 126.88L32.1259 133.366C31.9963 133.552 31.8199 133.657 31.6354 133.657ZM12.8719 131.675H31.3479L35.4843 125.769V26.5565H8.73265V125.769L12.8719 131.675Z" fill="black"/>
<path d="M10.4204 6.08594H0.695312V25.5655H10.4204V6.08594Z" fill="#F1F2F2"/>
<path d="M10.4196 26.557H0.694463C0.3109 26.557 0 26.1138 0 25.5658V6.08628C0 5.53884 0.3109 5.0957 0.694463 5.0957H10.4196C10.8031 5.0957 11.114 5.53884 11.114 6.08628V25.5658C11.1136 26.1138 10.8031 26.557 10.4196 26.557ZM1.3889 24.5747H9.72433V7.07743H1.3889V24.5747Z" fill="black"/>
<path d="M39.9616 0.990234H33.8069H22.1142H10.4204H4.26728L0.695312 6.08486H10.4204H22.1142H33.8069H43.5332L39.9616 0.990234Z" fill="white"/>
<path d="M43.5322 7.07693H0.694367C0.41376 7.07693 0.1602 6.8349 0.0532065 6.46495C-0.0549985 6.09326 0.00516397 5.66742 0.203405 5.38505L3.77577 0.290429C3.90578 0.1043 4.08302 0 4.26673 0H39.9607C40.1444 0 40.3212 0.1043 40.4516 0.290429L44.0236 5.38505C44.2222 5.66742 44.282 6.09326 44.1742 6.46495C44.0668 6.8349 43.8128 7.07693 43.5322 7.07693ZM2.37115 5.09462H41.8554L39.6728 1.9823H4.5538L2.37115 5.09462Z" fill="black"/>
<path d="M43.531 6.08594H33.8047V25.5655H43.531V6.08594Z" fill="#F1F2F2"/>
<path d="M43.5302 26.557H33.8038C33.4199 26.557 33.1094 26.1138 33.1094 25.5658V6.08628C33.1094 5.53884 33.4195 5.0957 33.8038 5.0957H43.5302C43.9141 5.0957 44.2246 5.53884 44.2246 6.08628V25.5658C44.2246 26.1138 43.9141 26.557 43.5302 26.557ZM34.4983 24.5747H42.8361V7.07743H34.4983V24.5747Z" fill="black"/>
<path d="M22.1157 6.08594H10.4219V25.5655H22.1157H33.8083V6.08594H22.1157Z" fill="white"/>
<path d="M33.8082 26.557H10.4214C10.0379 26.557 9.72656 26.1138 9.72656 25.5658V6.08628C9.72656 5.53884 10.0379 5.0957 10.4214 5.0957H33.8082C34.1918 5.0957 34.5027 5.53884 34.5027 6.08628V25.5658C34.5027 26.1138 34.1922 26.557 33.8082 26.557ZM11.1159 24.5747H33.1138V7.07743H11.1159V24.5747Z" fill="black"/>
<path d="M5.56066 37.1212C5.20213 37.1212 4.89811 36.7282 4.86945 36.2095C4.83876 35.6638 5.12421 35.1861 5.50657 35.1435L41.0624 31.0976C41.4395 31.0492 41.7782 31.4595 41.8097 32.0052C41.8404 32.5515 41.5546 33.0292 41.1722 33.0719L5.61679 37.1171C5.59782 37.1195 5.57883 37.1212 5.56066 37.1212Z" fill="black"/>
<path d="M5.56066 49.9604C5.20213 49.9604 4.89811 49.5674 4.86945 49.0487C4.83876 48.503 5.12421 48.0247 5.50657 47.9821L41.0624 43.9334C41.4395 43.9022 41.7782 44.2952 41.8097 44.841C41.8404 45.3867 41.5546 45.865 41.1722 45.9076L5.61679 49.9563C5.59782 49.9586 5.57883 49.9604 5.56066 49.9604Z" fill="black"/>
<path d="M5.56066 62.799C5.20213 62.799 4.89811 62.406 4.86945 61.8879C4.83876 61.3422 5.12421 60.8639 5.50657 60.8213L41.0624 56.776C41.4395 56.7374 41.7782 57.1396 41.8097 57.6836C41.8404 58.2293 41.5546 58.7076 41.1722 58.7502L5.61679 62.7955C5.59782 62.7967 5.57883 62.799 5.56066 62.799Z" fill="black"/>
<path d="M5.56066 75.6402C5.20213 75.6402 4.89811 75.2472 4.86945 74.728C4.83876 74.1823 5.12421 73.7046 5.50657 73.662L41.0624 69.6167C41.4395 69.5717 41.7782 69.978 41.8097 70.5243C41.8404 71.07 41.5546 71.5477 41.1722 71.5909L5.61679 75.6362C5.59782 75.6379 5.57883 75.6402 5.56066 75.6402Z" fill="black"/>
<path d="M5.56066 88.4804C5.20213 88.4804 4.89811 88.0874 4.86945 87.5688C4.83876 87.0231 5.12421 86.5454 5.50657 86.5022L41.0624 82.4529C41.4395 82.4062 41.7782 82.8147 41.8097 83.3604C41.8404 83.9062 41.5546 84.3844 41.1722 84.4271L5.61679 88.4758C5.59782 88.4787 5.57883 88.4804 5.56066 88.4804Z" fill="black"/>
<path d="M5.56066 101.32C5.20213 101.32 4.89811 100.927 4.86945 100.408C4.83876 99.8626 5.12421 99.3849 5.50657 99.3423L41.0624 95.297C41.4395 95.2624 41.7782 95.6612 41.8097 96.2046C41.8404 96.7509 41.5546 97.2286 41.1722 97.2712L5.61679 101.317C5.59782 101.318 5.57883 101.32 5.56066 101.32Z" fill="black"/>
<path d="M5.56066 114.157C5.20213 114.157 4.89811 113.764 4.86945 113.246C4.83876 112.7 5.12421 112.222 5.50657 112.179L41.0624 108.136C41.4395 108.095 41.7782 108.498 41.8097 109.044C41.8404 109.59 41.5546 110.067 41.1722 110.11L5.61679 114.153C5.59782 114.155 5.57883 114.157 5.56066 114.157Z" fill="black"/>
<path d="M5.56066 127C5.20213 127 4.89811 126.607 4.86945 126.088C4.83876 125.542 5.12421 125.064 5.50657 125.021L41.0624 120.972C41.4395 120.928 41.7782 121.334 41.8097 121.88C41.8404 122.426 41.5546 122.904 41.1722 122.947L5.61679 126.996C5.59782 126.997 5.57883 127 5.56066 127Z" fill="black"/>
</svg>
